<?xml version="1.0" encoding="UTF-8"?>
<svg xmlns="http://www.w3.org/2000/svg" xmlns:xlink="http://www.w3.org/1999/xlink" width="300px" height="300px" viewBox="0 0 768 768" version="1.1">
<defs>
<clipPath id="clip1">
  <path d="M 200.226562 121.464844 L 567.726562 121.464844 L 567.726562 646.464844 L 200.226562 646.464844 Z M 200.226562 121.464844 "/>
</clipPath>
<clipPath id="clip2">
  <path d="M 230.398438 144.109375 L 537.898438 144.109375 L 537.898438 451.609375 L 230.398438 451.609375 Z M 230.398438 144.109375 "/>
</clipPath>
<clipPath id="clip3">
  <path d="M 278.441406 232.011719 L 489.191406 232.011719 L 489.191406 421.761719 L 278.441406 421.761719 Z M 278.441406 232.011719 "/>
</clipPath>
</defs>
<g id="surface1">
<g clip-path="url(#clip1)" clip-rule="nonzero">
<path style=" stroke:none;fill-rule:nonzero;fill:rgb(36.862745%,9.019608%,92.156863%);fill-opacity:1;" d="M 383.976562 121.464844 C 282.519531 121.464844 200.226562 203.757812 200.226562 305.214844 C 200.226562 443.027344 383.976562 646.460938 383.976562 646.460938 C 383.976562 646.460938 567.726562 443.027344 567.726562 305.214844 C 567.726562 203.757812 485.429688 121.464844 383.976562 121.464844 Z M 383.976562 370.839844 C 347.75 370.839844 318.351562 341.441406 318.351562 305.214844 C 318.351562 268.992188 347.75 239.589844 383.976562 239.589844 C 420.199219 239.589844 449.601562 268.992188 449.601562 305.214844 C 449.601562 341.441406 420.199219 370.839844 383.976562 370.839844 Z M 383.976562 370.839844 "/>
</g>
<g clip-path="url(#clip2)" clip-rule="nonzero">
<path style=" stroke:none;fill-rule:nonzero;fill:rgb(36.862745%,9.019608%,92.156863%);fill-opacity:1;" d="M 537.898438 297.859375 C 537.898438 300.375 537.839844 302.890625 537.714844 305.402344 C 537.589844 307.917969 537.40625 310.425781 537.160156 312.929688 C 536.914062 315.433594 536.605469 317.929688 536.234375 320.417969 C 535.867188 322.90625 535.4375 325.386719 534.945312 327.855469 C 534.453125 330.320312 533.902344 332.777344 533.292969 335.21875 C 532.679688 337.65625 532.011719 340.082031 531.28125 342.488281 C 530.550781 344.898438 529.761719 347.285156 528.914062 349.65625 C 528.066406 352.023438 527.160156 354.371094 526.195312 356.695312 C 525.234375 359.019531 524.214844 361.320312 523.136719 363.59375 C 522.0625 365.871094 520.929688 368.117188 519.746094 370.335938 C 518.558594 372.554688 517.320312 374.742188 516.027344 376.902344 C 514.730469 379.058594 513.386719 381.183594 511.988281 383.277344 C 510.589844 385.371094 509.140625 387.425781 507.644531 389.449219 C 506.144531 391.46875 504.597656 393.453125 503 395.398438 C 501.402344 397.339844 499.761719 399.246094 498.070312 401.109375 C 496.382812 402.976562 494.648438 404.796875 492.867188 406.578125 C 491.089844 408.355469 489.265625 410.089844 487.402344 411.78125 C 485.539062 413.46875 483.632812 415.113281 481.6875 416.710938 C 479.742188 418.304688 477.757812 419.851562 475.738281 421.351562 C 473.71875 422.851562 471.660156 424.300781 469.570312 425.695312 C 467.476562 427.09375 465.351562 428.441406 463.191406 429.734375 C 461.035156 431.027344 458.847656 432.269531 456.628906 433.453125 C 454.40625 434.640625 452.160156 435.769531 449.886719 436.847656 C 447.613281 437.921875 445.3125 438.941406 442.988281 439.90625 C 440.664062 440.867188 438.316406 441.773438 435.945312 442.621094 C 433.578125 443.46875 431.1875 444.257812 428.78125 444.988281 C 426.375 445.71875 423.949219 446.390625 421.507812 447 C 419.066406 447.613281 416.613281 448.164062 414.144531 448.65625 C 411.675781 449.144531 409.199219 449.574219 406.710938 449.945312 C 404.222656 450.3125 401.722656 450.621094 399.21875 450.867188 C 396.714844 451.113281 394.207031 451.300781 391.695312 451.421875 C 389.179688 451.546875 386.667969 451.609375 384.148438 451.609375 C 381.632812 451.609375 379.117188 451.546875 376.605469 451.421875 C 374.09375 451.300781 371.582031 451.113281 369.078125 450.867188 C 366.574219 450.621094 364.078125 450.3125 361.589844 449.945312 C 359.101562 449.574219 356.621094 449.144531 354.15625 448.65625 C 351.6875 448.164062 349.234375 447.613281 346.792969 447 C 344.351562 446.390625 341.925781 445.71875 339.519531 444.988281 C 337.109375 444.257812 334.722656 443.46875 332.351562 442.621094 C 329.984375 441.773438 327.636719 440.867188 325.3125 439.90625 C 322.988281 438.941406 320.6875 437.921875 318.414062 436.847656 C 316.140625 435.769531 313.890625 434.640625 311.671875 433.453125 C 309.453125 432.269531 307.265625 431.027344 305.105469 429.734375 C 302.949219 428.441406 300.824219 427.09375 298.730469 425.695312 C 296.640625 424.300781 294.582031 422.851562 292.5625 421.351562 C 290.539062 419.851562 288.558594 418.304688 286.613281 416.710938 C 284.667969 415.113281 282.761719 413.46875 280.898438 411.78125 C 279.035156 410.089844 277.210938 408.355469 275.433594 406.578125 C 273.652344 404.796875 271.917969 402.976562 270.230469 401.109375 C 268.539062 399.246094 266.894531 397.339844 265.300781 395.398438 C 263.703125 393.453125 262.15625 391.46875 260.65625 389.449219 C 259.15625 387.425781 257.710938 385.371094 256.3125 383.277344 C 254.914062 381.183594 253.566406 379.058594 252.273438 376.902344 C 250.980469 374.742188 249.742188 372.554688 248.554688 370.335938 C 247.367188 368.117188 246.238281 365.871094 245.160156 363.59375 C 244.085938 361.320312 243.066406 359.019531 242.101562 356.695312 C 241.140625 354.371094 240.234375 352.023438 239.386719 349.65625 C 238.539062 347.285156 237.75 344.898438 237.019531 342.488281 C 236.289062 340.082031 235.617188 337.65625 235.007812 335.21875 C 234.394531 332.777344 233.84375 330.320312 233.355469 327.855469 C 232.863281 325.386719 232.433594 322.90625 232.0625 320.417969 C 231.695312 317.929688 231.386719 315.433594 231.140625 312.929688 C 230.894531 310.425781 230.707031 307.917969 230.585938 305.402344 C 230.460938 302.890625 230.398438 300.375 230.398438 297.859375 C 230.398438 295.34375 230.460938 292.828125 230.585938 290.316406 C 230.707031 287.800781 230.894531 285.292969 231.140625 282.789062 C 231.386719 280.285156 231.695312 277.789062 232.0625 275.300781 C 232.433594 272.808594 232.863281 270.332031 233.355469 267.863281 C 233.84375 265.394531 234.394531 262.941406 235.007812 260.5 C 235.617188 258.058594 236.289062 255.636719 237.019531 253.226562 C 237.75 250.820312 238.539062 248.429688 239.386719 246.0625 C 240.234375 243.691406 241.140625 241.347656 242.101562 239.019531 C 243.066406 236.695312 244.085938 234.398438 245.160156 232.121094 C 246.238281 229.847656 247.367188 227.601562 248.554688 225.382812 C 249.742188 223.164062 250.980469 220.972656 252.273438 218.816406 C 253.566406 216.65625 254.914062 214.53125 256.3125 212.441406 C 257.710938 210.347656 259.15625 208.292969 260.65625 206.269531 C 262.15625 204.25 263.703125 202.265625 265.300781 200.320312 C 266.894531 198.375 268.539062 196.472656 270.230469 194.605469 C 271.917969 192.742188 273.652344 190.921875 275.433594 189.140625 C 277.210938 187.363281 279.035156 185.628906 280.898438 183.9375 C 282.761719 182.246094 284.667969 180.605469 286.613281 179.007812 C 288.558594 177.414062 290.539062 175.863281 292.5625 174.367188 C 294.582031 172.867188 296.640625 171.417969 298.730469 170.019531 C 300.824219 168.621094 302.949219 167.277344 305.105469 165.984375 C 307.265625 164.6875 309.453125 163.449219 311.671875 162.261719 C 313.890625 161.078125 316.140625 159.945312 318.414062 158.871094 C 320.6875 157.792969 322.988281 156.773438 325.3125 155.8125 C 327.636719 154.847656 329.984375 153.945312 332.351562 153.097656 C 334.722656 152.25 337.109375 151.460938 339.519531 150.730469 C 341.925781 150 344.351562 149.328125 346.792969 148.714844 C 349.234375 148.105469 351.6875 147.554688 354.15625 147.0625 C 356.621094 146.570312 359.101562 146.140625 361.589844 145.773438 C 364.078125 145.402344 366.574219 145.097656 369.078125 144.847656 C 371.582031 144.601562 374.09375 144.417969 376.605469 144.292969 C 379.117188 144.171875 381.632812 144.109375 384.148438 144.109375 C 386.667969 144.109375 389.179688 144.171875 391.695312 144.292969 C 394.207031 144.417969 396.714844 144.601562 399.21875 144.847656 C 401.722656 145.097656 404.222656 145.402344 406.710938 145.773438 C 409.199219 146.140625 411.675781 146.570312 414.144531 147.0625 C 416.613281 147.554688 419.066406 148.105469 421.507812 148.714844 C 423.949219 149.328125 426.375 150 428.78125 150.730469 C 431.1875 151.460938 433.578125 152.25 435.945312 153.097656 C 438.316406 153.945312 440.664062 154.847656 442.988281 155.8125 C 445.3125 156.773438 447.613281 157.792969 449.886719 158.871094 C 452.160156 159.945312 454.40625 161.078125 456.628906 162.261719 C 458.847656 163.449219 461.035156 164.6875 463.191406 165.984375 C 465.351562 167.277344 467.476562 168.621094 469.570312 170.019531 C 471.660156 171.417969 473.71875 172.867188 475.738281 174.367188 C 477.757812 175.863281 479.742188 177.414062 481.6875 179.007812 C 483.632812 180.605469 485.539062 182.246094 487.402344 183.9375 C 489.265625 185.628906 491.089844 187.363281 492.867188 189.140625 C 494.648438 190.921875 496.382812 192.742188 498.070312 194.605469 C 499.761719 196.472656 501.402344 198.375 503 200.320312 C 504.597656 202.265625 506.144531 204.25 507.644531 206.269531 C 509.140625 208.292969 510.589844 210.347656 511.988281 212.441406 C 513.386719 214.53125 514.730469 216.65625 516.027344 218.816406 C 517.320312 220.972656 518.558594 223.164062 519.746094 225.382812 C 520.929688 227.601562 522.0625 229.847656 523.136719 232.121094 C 524.214844 234.398438 525.234375 236.695312 526.195312 239.019531 C 527.160156 241.347656 528.066406 243.691406 528.914062 246.0625 C 529.761719 248.429688 530.550781 250.820312 531.28125 253.226562 C 532.011719 255.636719 532.679688 258.058594 533.292969 260.5 C 533.902344 262.941406 534.453125 265.394531 534.945312 267.863281 C 535.4375 270.332031 535.867188 272.808594 536.234375 275.300781 C 536.605469 277.789062 536.914062 280.285156 537.160156 282.789062 C 537.40625 285.292969 537.589844 287.800781 537.714844 290.316406 C 537.839844 292.828125 537.898438 295.34375 537.898438 297.859375 Z M 537.898438 297.859375 "/>
</g>
<path style=" stroke:none;fill-rule:nonzero;fill:rgb(100%,100%,100%);fill-opacity:1;" d="M 417.535156 337.425781 C 417.535156 338.53125 417.480469 339.632812 417.371094 340.734375 C 417.265625 341.832031 417.101562 342.925781 416.886719 344.007812 C 416.671875 345.089844 416.402344 346.160156 416.082031 347.21875 C 415.761719 348.277344 415.390625 349.316406 414.96875 350.335938 C 414.546875 351.355469 414.074219 352.355469 413.554688 353.328125 C 413.03125 354.304688 412.464844 355.25 411.851562 356.167969 C 411.238281 357.085938 410.582031 357.972656 409.882812 358.828125 C 409.179688 359.679688 408.441406 360.5 407.660156 361.28125 C 406.878906 362.0625 406.058594 362.800781 405.207031 363.503906 C 404.351562 364.203125 403.46875 364.859375 402.550781 365.476562 C 401.628906 366.089844 400.683594 366.65625 399.710938 367.175781 C 398.738281 367.699219 397.738281 368.167969 396.71875 368.59375 C 395.699219 369.015625 394.660156 369.386719 393.605469 369.707031 C 392.546875 370.027344 391.476562 370.296875 390.394531 370.511719 C 389.3125 370.726562 388.21875 370.890625 387.121094 370.996094 C 386.023438 371.105469 384.921875 371.160156 383.816406 371.160156 C 382.710938 371.160156 381.609375 371.105469 380.511719 370.996094 C 379.410156 370.890625 378.320312 370.726562 377.238281 370.511719 C 376.15625 370.296875 375.085938 370.027344 374.027344 369.707031 C 372.972656 369.386719 371.933594 369.015625 370.910156 368.59375 C 369.890625 368.167969 368.894531 367.699219 367.921875 367.175781 C 366.945312 366.65625 366 366.089844 365.082031 365.476562 C 364.164062 364.859375 363.277344 364.203125 362.425781 363.503906 C 361.570312 362.800781 360.753906 362.0625 359.972656 361.28125 C 359.191406 360.5 358.453125 359.679688 357.75 358.828125 C 357.050781 357.972656 356.394531 357.085938 355.78125 356.167969 C 355.164062 355.25 354.597656 354.304688 354.078125 353.328125 C 353.558594 352.355469 353.085938 351.355469 352.664062 350.335938 C 352.242188 349.316406 351.871094 348.277344 351.546875 347.21875 C 351.226562 346.160156 350.960938 345.089844 350.746094 344.007812 C 350.527344 342.925781 350.367188 341.832031 350.257812 340.734375 C 350.152344 339.632812 350.097656 338.53125 350.097656 337.425781 C 350.097656 336.320312 350.152344 335.21875 350.257812 334.121094 C 350.367188 333.019531 350.527344 331.929688 350.746094 330.84375 C 350.960938 329.761719 351.226562 328.691406 351.546875 327.632812 C 351.871094 326.578125 352.242188 325.539062 352.664062 324.515625 C 353.085938 323.496094 353.558594 322.5 354.078125 321.523438 C 354.597656 320.550781 355.164062 319.605469 355.78125 318.683594 C 356.394531 317.765625 357.050781 316.878906 357.75 316.027344 C 358.453125 315.171875 359.191406 314.355469 359.972656 313.574219 C 360.753906 312.792969 361.570312 312.050781 362.425781 311.351562 C 363.277344 310.648438 364.164062 309.992188 365.082031 309.378906 C 366 308.765625 366.945312 308.199219 367.921875 307.675781 C 368.894531 307.15625 369.890625 306.683594 370.910156 306.261719 C 371.933594 305.839844 372.972656 305.464844 374.027344 305.144531 C 375.085938 304.824219 376.15625 304.558594 377.238281 304.339844 C 378.320312 304.125 379.410156 303.964844 380.511719 303.855469 C 381.609375 303.746094 382.710938 303.691406 383.816406 303.691406 C 384.921875 303.691406 386.023438 303.746094 387.121094 303.855469 C 388.21875 303.964844 389.3125 304.125 390.394531 304.339844 C 391.476562 304.558594 392.546875 304.824219 393.605469 305.144531 C 394.660156 305.464844 395.699219 305.839844 396.71875 306.261719 C 397.738281 306.683594 398.738281 307.15625 399.710938 307.675781 C 400.683594 308.199219 401.628906 308.765625 402.550781 309.378906 C 403.46875 309.992188 404.351562 310.648438 405.207031 311.351562 C 406.058594 312.050781 406.878906 312.792969 407.660156 313.574219 C 408.441406 314.355469 409.179688 315.171875 409.882812 316.027344 C 410.582031 316.878906 411.238281 317.765625 411.851562 318.683594 C 412.464844 319.605469 413.03125 320.550781 413.554688 321.523438 C 414.074219 322.5 414.546875 323.496094 414.96875 324.515625 C 415.390625 325.539062 415.761719 326.578125 416.082031 327.632812 C 416.402344 328.691406 416.671875 329.761719 416.886719 330.84375 C 417.101562 331.929688 417.265625 333.019531 417.371094 334.121094 C 417.480469 335.21875 417.535156 336.320312 417.535156 337.425781 Z M 417.535156 337.425781 "/>
<g clip-path="url(#clip3)" clip-rule="nonzero">
<path style=" stroke:none;fill-rule:nonzero;fill:rgb(100%,100%,100%);fill-opacity:1;" d="M 352.203125 232.011719 L 332.921875 253.09375 L 299.519531 253.09375 C 287.875 253.09375 278.445312 262.527344 278.445312 274.175781 L 278.445312 400.675781 C 278.445312 412.324219 287.875 421.761719 299.519531 421.761719 L 468.113281 421.761719 C 479.757812 421.761719 489.1875 412.324219 489.1875 400.675781 L 489.1875 274.175781 C 489.1875 262.527344 479.757812 253.09375 468.113281 253.09375 L 434.710938 253.09375 L 415.425781 232.011719 Z M 383.816406 390.136719 C 354.734375 390.136719 331.128906 366.523438 331.128906 337.425781 C 331.128906 308.332031 354.734375 284.71875 383.816406 284.71875 C 412.898438 284.71875 436.5 308.332031 436.5 337.425781 C 436.5 366.523438 412.898438 390.136719 383.816406 390.136719 Z M 383.816406 390.136719 "/>
</g>
</g>
</svg>
